<svg xmlns="http://www.w3.org/2000/svg" width="32" height="32" viewBox="0 0 32 32">
  <g id="Gruppe_17662" data-name="Gruppe 17662" transform="translate(-364 -1006)">
    <g id="Ellipse_51" data-name="Ellipse 51" transform="translate(365 1007)" fill="#fff" stroke="#ebebeb" stroke-width="1">
      <circle cx="15" cy="15" r="15" stroke="none"/>
      <circle cx="15" cy="15" r="15.5" fill="none"/>
    </g>
    <path id="Icon_awesome-check" data-name="Icon awesome-check" d="M5.434,16.274l-5.2-5.2a.8.8,0,0,1,0-1.131L1.366,8.812a.8.8,0,0,1,1.131,0l3.5,3.5,7.5-7.5a.8.8,0,0,1,1.131,0l1.131,1.131a.8.8,0,0,1,0,1.131l-9.2,9.2A.8.8,0,0,1,5.434,16.274Z" transform="translate(372 1011.423)" fill="#054680"/>
  </g>
</svg>
