<?xml version="1.0" encoding="utf-8"?>
<!-- Generator: Adobe Illustrator 23.0.6, SVG Export Plug-In . SVG Version: 6.00 Build 0)  -->
<svg version="1.1" id="Layer_1" xmlns="http://www.w3.org/2000/svg" xmlns:xlink="http://www.w3.org/1999/xlink" x="0px" y="0px"
	 viewBox="0 0 10.8 10.7" style="enable-background:new 0 0 10.8 10.7;" xml:space="preserve">
<style type="text/css">
	.st0{fill:#fff;stroke:#fff;stroke-width:0.5;}
</style>
<path class="st0" d="M9.6,1.2c0.2,0.2,0.2,0.3,0.1,0.5v0.1L6,5.4L9.6,9c0.2,0.2,0.2,0.4,0,0.6S9.3,9.8,9.1,9.7H9L5.4,6L1.8,9.6
	c-0.2,0.2-0.4,0.2-0.6,0S1,9.3,1.1,9.1V9l3.6-3.6L1.2,1.8C1,1.6,1,1.4,1.2,1.2S1.6,1,1.7,1.1h0.1l3.6,3.6L9,1.1C9.2,1,9.4,1,9.6,1.2
	L9.6,1.2z"/>
</svg>
