<svg xmlns="http://www.w3.org/2000/svg" width="122.808" height="32" viewBox="0 0 122.808 32">
  <g id="Blue_Colour_Primary" data-name="Blue Colour Primary" transform="translate(165.518 43.129)">
    <g id="Gruppe_17674" data-name="Gruppe 17674" transform="translate(-165.518 -43.129)">
      <g id="Gruppe_17672" data-name="Gruppe 17672">
        <path id="Pfad_5017" data-name="Pfad 5017" d="M.316,14.416A4.533,4.533,0,0,1,3.258,11.7a5.04,5.04,0,0,1,1.156-.154c2.117-.006,4.742,0,6.859,0h.345v-.37q0-3.223,0-6.446a4.749,4.749,0,0,1,1.5-3.636A4.173,4.173,0,0,1,15.266,0c-.2.334-.387.615-.552.91a9.186,9.186,0,0,0-1.127,3.609A13.655,13.655,0,0,0,14.3,9.884c.415,1.372,1.676,3.994,1.452,4.654-.122.359-.328.686-.474,1.037a5.754,5.754,0,0,0-.48,2.257,3.449,3.449,0,0,0,.35,1.593,4.319,4.319,0,0,1,.194,2.007,30.633,30.633,0,0,1-1.3,7.176c-.3.813-.68,1.593-1.047,2.443a4.58,4.58,0,0,1-1.057-1.624,5.019,5.019,0,0,1-.319-1.852q-.005-3.223,0-6.445v-.386h-.358c-2.095,0-4.7.007-6.792,0A4.448,4.448,0,0,1,.21,17.5a4.363,4.363,0,0,1-.161-1.968c4.276,2.689,9.221,3.438,14.266,3.3a6.807,6.807,0,0,1,.332-3.116c.076-.239-.054-.4-.291-.356a4,4,0,0,0-.761.229C9.965,17.239,1.449,14.888.316,14.416Z" transform="translate(0)" fill="#2569a8"/>
        <g id="Gruppe_17670" data-name="Gruppe 17670" transform="translate(13.954 13.643)">
          <path id="Pfad_5018" data-name="Pfad 5018" d="M55.32,37.767a.537.537,0,0,0-.29-.332c-1.045-.465-5.1-2.236-13.263,3.059a.326.326,0,0,0-.152.226c-.174,1.289-.3,2.587-.514,3.869a29.644,29.644,0,0,1-1.884,7.082c-.486,1.006-1.06,1.965-1.6,2.962.028.016.1.06.174.094a4.112,4.112,0,0,0,2.351.362,4.456,4.456,0,0,0,3.758-4.5V43.666h.391c2.061,0,4.757.009,6.818,0A4.5,4.5,0,0,0,55.32,37.767Zm-3.892,3.124s-1.7-.295-1.646-1.8c0,0,.047-1.458,2.062-1.211a1.384,1.384,0,0,1,.454.138,1.885,1.885,0,0,1,1.175,1.611S53.456,41.1,51.428,40.892Z" transform="translate(-37.613 -36.776)" fill="#a1cbf1"/>
        </g>
        <g id="Gruppe_17671" data-name="Gruppe 17671" transform="translate(14.578 0.071)">
          <path id="Pfad_5019" data-name="Pfad 5019" d="M52.393,11.671c-2.154-.035-4.943-.009-7.1-.009h-.343v-.4q0-3.277,0-6.554a4.348,4.348,0,0,0-.023-.492,4.455,4.455,0,0,0-4-4.025.4.4,0,0,0-.433.22,8.331,8.331,0,0,0-.958,6.333,32.423,32.423,0,0,0,1.512,4.464c.57,1.475,1.507,4.038,1.56,4.346a61.514,61.514,0,0,1,6.408-2.084,12.566,12.566,0,0,1,5.492-.252l1.208.262A4.169,4.169,0,0,0,52.393,11.671ZM42.782,5.484a1.189,1.189,0,0,1-.026.174c-.082.36-.451,1.611-1.631,1.623a.983.983,0,0,1-.248-.029,1.4,1.4,0,0,1-1.009-1.419,2.54,2.54,0,0,1,.525-1.791,1.451,1.451,0,0,1,1.169-.613S42.94,3.445,42.782,5.484Z" transform="translate(-39.295 -0.192)" fill="#a1cbf1"/>
        </g>
      </g>
      <g id="Gruppe_17673" data-name="Gruppe 17673" transform="translate(40.692 7.436)">
        <path id="Pfad_5020" data-name="Pfad 5020" d="M118.838,38.687h-9.151V22.8h9.151v2.76h-5.782v3.489h5.38v2.761h-5.38v4.1h5.782Z" transform="translate(-109.687 -21.775)" fill="#2569a8"/>
        <path id="Pfad_5021" data-name="Pfad 5021" d="M147.4,37.584h-3.315V21.043H147.4Z" transform="translate(-131.326 -20.672)" fill="#2569a8"/>
        <path id="Pfad_5022" data-name="Pfad 5022" d="M163.517,21.662q0-1.619,1.8-1.619t1.8,1.619a1.579,1.579,0,0,1-.451,1.2,1.894,1.894,0,0,1-1.353.43Q163.517,23.293,163.517,21.662Zm3.456,15.292h-3.315V24.8h3.315Z" transform="translate(-143.547 -20.043)" fill="#2569a8"/>
        <path id="Pfad_5023" data-name="Pfad 5023" d="M186.745,38.216a7.184,7.184,0,0,0,2.087-.381V40.3a7.443,7.443,0,0,1-3.043.554,3.725,3.725,0,0,1-2.9-1.005,4.376,4.376,0,0,1-.907-3.016V30.978H180.4v-1.4l1.826-1.109.956-2.565H185.3v2.587h3.4v2.489h-3.4v5.858a1.293,1.293,0,0,0,.4,1.043A1.564,1.564,0,0,0,186.745,38.216Z" transform="translate(-154.166 -23.728)" fill="#2569a8"/>
        <path id="Pfad_5024" data-name="Pfad 5024" d="M222.47,37.584h-3.315v-7.1q0-2.63-1.957-2.63a2.225,2.225,0,0,0-2.011.946,5.776,5.776,0,0,0-.62,3.065v5.717h-3.315V21.043h3.315v3.074q0,.4-.076,1.891l-.076.978h.174a3.84,3.84,0,0,1,3.521-1.782,4.306,4.306,0,0,1,3.25,1.152,4.577,4.577,0,0,1,1.109,3.3Z" transform="translate(-173.575 -20.672)" fill="#2569a8"/>
        <path id="Pfad_5025" data-name="Pfad 5025" d="M258.54,44.6,257.9,42.95h-.087a4.9,4.9,0,0,1-1.722,1.462,5.565,5.565,0,0,1-2.31.408,3.735,3.735,0,0,1-2.755-1,3.84,3.84,0,0,1-1.005-2.847,3.207,3.207,0,0,1,1.353-2.853,7.843,7.843,0,0,1,4.081-1.016l2.108-.065v-.532a1.653,1.653,0,0,0-1.891-1.848,8.617,8.617,0,0,0-3.424.88l-1.1-2.239a9.877,9.877,0,0,1,4.652-1.1,5.8,5.8,0,0,1,3.75,1.065,3.936,3.936,0,0,1,1.3,3.239v8.1Zm-.978-5.63-1.282.043a4.107,4.107,0,0,0-2.152.522,1.639,1.639,0,0,0-.707,1.456q0,1.4,1.609,1.4a2.548,2.548,0,0,0,1.842-.663,2.328,2.328,0,0,0,.69-1.761Z" transform="translate(-197.958 -27.691)" fill="#2569a8"/>
        <path id="Pfad_5026" data-name="Pfad 5026" d="M289.547,21.662q0-1.619,1.8-1.619t1.8,1.619a1.579,1.579,0,0,1-.451,1.2,1.9,1.9,0,0,1-1.353.43Q289.547,23.293,289.547,21.662ZM293,36.955h-3.315V24.8H293Z" transform="translate(-222.822 -20.043)" fill="#2569a8"/>
        <path id="Pfad_5027" data-name="Pfad 5027" d="M316.52,32.26a5.369,5.369,0,0,1,1.12.1l-.25,3.108a3.8,3.8,0,0,0-.978-.109,3.516,3.516,0,0,0-2.473.815,2.947,2.947,0,0,0-.885,2.282v6.184h-3.315V32.488h2.511l.489,2.043h.163a4.564,4.564,0,0,1,1.527-1.647A3.764,3.764,0,0,1,316.52,32.26Z" transform="translate(-235.523 -27.728)" fill="#2569a8"/>
      </g>
    </g>
  </g>
</svg>
