<?xml version="1.0" encoding="utf-8"?>
<!-- Generator: Adobe Illustrator 26.0.3, SVG Export Plug-In . SVG Version: 6.00 Build 0)  -->
<svg version="1.1" id="Layer_1" xmlns="http://www.w3.org/2000/svg" xmlns:xlink="http://www.w3.org/1999/xlink" x="0px" y="0px"
	 viewBox="0 0 322 26.9" style="enable-background:new 0 0 322 26.9;" xml:space="preserve">
<style type="text/css">
	.st0{fill:#66676E;}
	.st1{font-family:'OpenSans-Regular';}
	.st2{font-size:16px;}
	.st3{fill:#FFFFFF;}
	.st4{fill:#C70A0C;}
</style>
<g id="Gruppe_17686" transform="translate(-28 -4885)">
	<text transform="matrix(1 0 0 1 26.75 4904)" class="st0 st1 st2">in cooperation with</text>
	<g id="layer1" transform="translate(225.512 4791.553)">
		<g id="surface44525" transform="translate(-57.033 82.926)">
			<path id="path10" class="st3" d="M20.2,24.2c1.1-4.2-0.2-8.7-3.2-11C11,17,9.3,24.8,13,30.7C16.3,29.8,19.1,28.1,20.2,24.2
				 M25.8,36.4c6.9-1.2,11.6-7.7,10.4-14.6s-7.7-11.6-14.6-10.4c-1.3,0.2-2.6,0.7-3.8,1.3c6.1,2.1,9.4,5.2,9.6,8.4
				c0.1,1.8-0.7,3.5-2,4.6l8.6-0.6c0.2,0,0.3,0.3,0,0.4l-20.5,5.9C16.3,35.3,21.1,37.2,25.8,36.4 M25.1,10.6
				c7.4,0.8,12.7,7.4,11.9,14.8c-0.8,7.4-7.4,12.7-14.8,11.9c-7.4-0.8-12.7-7.4-11.9-14.8c0.7-6.8,6.5-12,13.4-12
				C24.2,10.5,24.6,10.5,25.1,10.6"/>
			<path id="path12" class="st4" d="M11.2,26.1c0.3,1.7,0.9,3.2,1.8,4.7c3.3-0.9,6.1-2.6,7.2-6.5c1.1-4.2-0.2-8.7-3.2-11
				C12.6,16,10.4,21,11.2,26.1 M36.2,21.9c1.2,6.9-3.5,13.4-10.4,14.6c-4.7,0.8-9.5-1.2-12.4-5.1L34,25.5c0.3-0.1,0.2-0.4,0-0.4
				l-8.6,0.6c1.3-1.1,2.1-2.8,2-4.6c-0.2-3.2-3.5-6.3-9.6-8.4c6.2-3.3,13.8-0.9,17.1,5.3C35.5,19.2,36,20.5,36.2,21.9"/>
			<path id="path14" d="M106.7,29.2v-4.4h-4.4v4.4h-2.4V18.7h2.4v4.2h4.4v-4.2h2.5v10.5H106.7z"/>
			<path id="path16" d="M54.3,18.7v6.6c0,0.6,0.1,1.3,0.3,1.9c0.2,0.5,0.5,0.9,0.9,1.3c0.4,0.3,0.9,0.6,1.4,0.7
				c0.6,0.2,1.2,0.2,1.9,0.2c0.6,0,1.2-0.1,1.8-0.2c0.5-0.1,1-0.4,1.3-0.7c0.4-0.3,0.7-0.8,0.8-1.3c0.2-0.6,0.3-1.2,0.3-1.9v-6.6
				h-2.3v6.5c0,0.6-0.1,1.1-0.5,1.6c-0.9,0.8-2.2,0.8-3.1,0c-0.4-0.5-0.5-1-0.5-1.6v-6.5H54.3z"/>
			<path id="path18" d="M47.3,29.2v-8.6h-2.9v-2h8.2v0.9c0,0.6-0.5,1-1,1h-1.9v8.6L47.3,29.2z"/>
			<path id="path20" d="M86.4,18.7h2.4v10.5h-2.4V18.7z"/>
			<path id="path22" d="M78.3,24.3l0.1,0.1l3.1,4c0.4,0.5,1,0.8,1.6,0.8H85l-4.4-5.7l-0.1-0.1l0.1-0.1l3.7-4.7h-2.5l-3.4,4.5
				l-0.1,0.1v-4.6h-2.4v10.5h2.4V24.3L78.3,24.3z"/>
			<path id="path24" d="M67.8,23.5h1.4c0.4,0,0.8-0.1,1.2-0.4c0.3-0.3,0.4-0.7,0.4-1.1c0-0.4-0.1-0.8-0.4-1.1
				c-0.3-0.3-0.7-0.5-1.2-0.4h-1.4V23.5z M72.7,29.2c-0.7,0-1.4-0.4-1.8-1L69,25.1h-1.2v4.1h-2.4V18.7h4.3c0.9-0.1,1.9,0.3,2.6,0.9
				c0.6,0.6,1,1.5,0.9,2.3c0,0.5-0.1,1-0.4,1.5c-0.3,0.5-0.8,0.9-1.3,1.2l-0.1,0.1l3,4.6L72.7,29.2z"/>
			<path id="path26" d="M90.8,28.8v-2c0.9,0.4,1.8,0.7,2.8,0.7c1.2,0,1.8-0.4,1.8-1.2c0-0.9-0.8-1-2.4-1.7c-1.3-0.4-2.2-1.6-2.1-3
				c0-2,1.6-3,3.7-3c0.9,0,1.8,0.2,2.7,0.5v2c-0.8-0.4-1.6-0.5-2.5-0.6c-1.1,0-1.6,0.4-1.6,1.1c0,0.7,0.6,0.9,1.7,1.3
				c1.4,0.7,3,1,3,3.4c0,2-1.6,3.2-3.8,3.2C92.9,29.4,91.8,29.2,90.8,28.8"/>
			<path id="path28" d="M165.9,29.2V18.7h6.6v1c0,0.6-0.5,1-1,1h-3.1v2.3h3.5v1.8h-3.5v2.6h4.2v2L165.9,29.2z"/>
			<path id="path30" d="M141.9,29.2V18.7h1.2c0.7,0,1.2,0.6,1.2,1.2v7.4h3.9v1.9L141.9,29.2z"/>
			<path id="path32" d="M126.8,29.2V18.7h2.4v10.5H126.8z"/>
			<path id="path34" d="M133.9,23.5h1.4c0.4,0,0.8-0.1,1.2-0.4c0.3-0.3,0.4-0.7,0.4-1.1c0-0.4-0.1-0.8-0.4-1.1
				c-0.3-0.3-0.7-0.5-1.2-0.4h-1.4L133.9,23.5z M138.8,29.2c-0.7,0-1.4-0.4-1.8-1l-1.9-3.1h-1.2v4.1h-2.4V18.7h4.3
				c0.9-0.1,1.9,0.3,2.6,0.9c0.6,0.6,1,1.5,0.9,2.3c0,0.5-0.1,1-0.4,1.5c-0.3,0.5-0.8,0.9-1.3,1.2l-0.1,0.1l3,4.6L138.8,29.2z"/>
			<path id="path36" d="M118.4,25.4l1-2.7c0.2-0.6,0.4-1.2,0.6-1.7h0c0.1,0.5,0.3,1.1,0.5,1.7l0.9,2.7H118.4z M121.4,18.7h-2.8
				l-4,10.5h1.8c0.4,0,0.8-0.3,1-0.7l0.4-1.2h4.3l0.6,1.9h2.6L121.4,18.7z"/>
			<path id="path38" d="M174.4,28.8v-2c0.9,0.4,1.8,0.7,2.8,0.7c1.2,0,1.8-0.4,1.8-1.2c0-0.9-0.8-1-2.4-1.7c-1.3-0.4-2.2-1.6-2.1-3
				c0-2,1.6-3,3.7-3c0.9,0,1.8,0.2,2.7,0.5v2c-0.8-0.4-1.6-0.5-2.5-0.6c-1.1,0-1.6,0.4-1.6,1.1c0,0.7,0.6,0.9,1.7,1.3
				c1.4,0.7,3,1,3,3.4c0,2-1.6,3.2-3.8,3.2C176.5,29.4,175.4,29.2,174.4,28.8"/>
			<path id="path40" d="M154.4,18.7h1.5c0.7,0,1.4,0.4,1.8,1l2.9,4.7c0.3,0.5,0.7,1.1,0.9,1.7h0.1c0-0.5-0.1-1.1-0.1-1.6v-5.8h2.1
				v10.5H161l-3.6-5.7c-0.3-0.5-0.7-1.1-0.9-1.6h0c0,0.5,0.1,1,0.1,1.5v5.8h-2.1L154.4,18.7z"/>
			<path id="path42" d="M149.7,29.2V18.7h2.4v10.5H149.7z"/>
		</g>
	</g>
</g>
</svg>
