<svg xmlns="http://www.w3.org/2000/svg" xmlns:xlink="http://www.w3.org/1999/xlink" width="259.265" height="35.057" viewBox="0 0 259.265 35.057">
  <defs>
    <radialGradient id="radial-gradient" cx="0.2" cy="0.74" r="0.366" gradientTransform="matrix(0.827, 0.56, -0.626, 0.927, 0.83, -0.466)" gradientUnits="objectBoundingBox">
      <stop offset="0"/>
      <stop offset="1" stop-opacity="0"/>
    </radialGradient>
    <radialGradient id="radial-gradient-2" cx="0.199" cy="0.74" r="1.151" gradientTransform="matrix(0.743, 0.668, -0.748, 0.834, 1.041, -0.472)" gradientUnits="objectBoundingBox">
      <stop offset="0" stop-opacity="0"/>
      <stop offset="1"/>
    </radialGradient>
    <radialGradient id="radial-gradient-3" cx="0.529" cy="0.374" r="0.534" gradientTransform="matrix(0.644, 0.765, -0.945, 0.797, 0.755, -0.7)" gradientUnits="objectBoundingBox">
      <stop offset="0" stop-color="#fff"/>
      <stop offset="1" stop-color="#fff" stop-opacity="0"/>
    </radialGradient>
    <radialGradient id="radial-gradient-4" cx="0.5" cy="0.5" r="0.499" gradientTransform="translate(-0.003 -0.001)" gradientUnits="objectBoundingBox">
      <stop offset="0" stop-color="#fff"/>
      <stop offset="1" stop-color="#e6e6e6" stop-opacity="0"/>
    </radialGradient>
    <radialGradient id="radial-gradient-5" cx="0.324" cy="0.545" r="0.312" gradientTransform="matrix(0.546, -0.839, 0.598, 0.387, 0.172, 1.138)" gradientUnits="objectBoundingBox">
      <stop offset="0" stop-color="#fff" stop-opacity="0"/>
      <stop offset="1" stop-color="#fff"/>
    </radialGradient>
  </defs>
  <g id="Gruppe_13476" data-name="Gruppe 13476" transform="translate(-566.909 -455.943)">
    <g id="ZDF_logo" transform="translate(768 457)">
      <path id="path2482" d="M39.084,22H35.51V12.118h3.574c2.808,0,3.818,1.2,3.818,4.941S41.892,22,39.084,22M52.5,12.118h5.673V9.427H51.341c-3.675,0-5.185,2.057-5.185,5.281l0,.315c-.615-3.8-2.87-5.6-7-5.6H32.225a17,17,0,1,0-.058,15.263h7.065a6.862,6.862,0,0,0,4.762-1.338,6.112,6.112,0,0,0,2.143-3.776V24.67h3.239l0-6h7.644V16.005H49.375l.044-1.08c0-1.75.526-2.807,3.081-2.807" transform="translate(0)" fill="#fa7d19"/>
      <path id="path2486" d="M145.326,75.412h2.558c2.036,0,3.235-.408,3.235-2.132,0-1.771-1.2-2.266-3.284-2.266h-8.676V67.753h10.093c5.121,0,5.846,3.584,5.846,5.583,0,2.127-.868,5.5-5.852,5.5h-2.476c-3.1,0-3.766,1.12-3.766,3.24v.991H154.59v3.157H139.044V81.635c0-3.9,1.835-6.223,6.282-6.223" transform="translate(-120.906 -59.948)" fill="#fff"/>
    </g>
    <g id="g2446" transform="translate(672 463.33)">
      <path id="path2452" d="M59.648,0a6.354,6.354,0,1,1-6.354,6.355A6.355,6.355,0,0,1,59.648,0M62.2,8.927V2.566l-6.4,2.3V6.443l2.118-.766v4.781ZM59.648.932a5.422,5.422,0,1,0,5.421,5.422A5.422,5.422,0,0,0,59.648.932M9.077,12.425H5.588L7.262,6.7Zm23.147,5.988-.189-1.769c-2.193.425-1.533-5.4-4.078-5.705a4.185,4.185,0,0,0,3.159-4.1c0-2.924-2.193-4.267-5.871-4.267-2.263,0-5.186.117-5.776.117H17.677V4.173a9.045,9.045,0,0,0,1.957,1.014V16.1a6.968,6.968,0,0,0-1.957.991V18.6h7.284V17.093a6,6,0,0,0-1.367-.991V12.165H24.3c2.452,0,1.6,6.7,5.21,6.7a7.549,7.549,0,0,0,2.712-.448M27.013,7.38A2.208,2.208,0,0,1,24.655,9.9H23.595V4.952a4.838,4.838,0,0,1,.943-.095A2.287,2.287,0,0,1,27.013,7.38M50.606,10.3c0-5.564-2.829-7.71-7.945-7.71-2.146,0-4.809.095-6.083.095H34.669V4.174a10.324,10.324,0,0,0,1.957,1.037V16.079a7.008,7.008,0,0,0-1.957,1.014V18.6h1.981c.707,0,3.206.095,4.928.095,5.138,0,9.028-2.947,9.028-8.392m-4.173.353c0,3.843-1.674,5.541-3.819,5.541a6.34,6.34,0,0,1-2.028-.236V4.928A12.839,12.839,0,0,1,42,4.857c3.536,0,4.432,2.688,4.432,5.8M15.679,18.6V17.093a4.62,4.62,0,0,0-1.132-.967L9.9,2.641H6.012L1.368,16.127A4.77,4.77,0,0,0,0,17.093V18.6H5.871V17.093A5.732,5.732,0,0,0,4.5,16.127l.448-1.485H9.738l.5,1.485a5.879,5.879,0,0,0-1.439.967V18.6Z" fill="#0f1d46"/>
    </g>
    <g id="Sat.1_Logo" transform="translate(566.938 455.938)">
      <g id="layer3" transform="translate(0.063 0.062)">
        <g id="g3319" transform="translate(0 0)">
          <path id="path3681" d="M-49.478,116.75c7.087-1.99,22.493-10.288,24.821-14.446a.821.821,0,0,0,.095-.524c-.019-.738-2.7-5.265-6.407-7.324a.815.815,0,0,0-.457-.013c-1.57.332-4.4,2.546-7.641,6.345a67.62,67.62,0,0,0-10.41,15.961" transform="translate(56.343 -91.937)" fill="none" stroke="#000" stroke-width="0.1"/>
          <path id="path3710" d="M-24.144,274.93c.49.226.644,1.045.641,1.252-.08,4.612-16.366,11.507-25.975,11.874,6.481,3.854,18.471,5.4,23.6.63,1.441-1.34,3.766-6.042,2.365-12.582" transform="translate(56.343 -262.594)" fill="none" stroke="#000" stroke-width="0.1"/>
          <path id="path3714" d="M-25.575,532.656c-.906,2.643-3.573,5-8.837,5.024a23.9,23.9,0,0,1-15.066-5.333c2.077,3.211,5.38,8.013,11.035,8.45,1.977.153,5.71-1.25,7.357-2.3,2.815-1.786,5.155-4.182,5.511-5.848" transform="translate(56.343 -506.884)" fill="none" stroke="#000" stroke-width="0.1"/>
          <path id="path3738" d="M-42.622,540.721a5.691,5.691,0,0,1-2.4.056,6.2,6.2,0,0,1-2.657-1.171c-3.294-2.218-4.766-6.05-5.308-7.26-.406,2.86-.222,5.4,1.212,6.224a16.787,16.787,0,0,0,5.222,2.027,12.983,12.983,0,0,0,1.908.273,5.37,5.37,0,0,0,.645.01" transform="translate(59.85 -506.884)" fill="none" stroke="#000" stroke-width="0.1"/>
          <path id="path3623" d="M-136.177,537.387a1.033,1.033,0,0,1-.912-.337,1.733,1.733,0,0,1-.2-1.091,12.582,12.582,0,0,1,1.033-3.612c-1.088.364-3.974,1.146-4.633.331.01.015-.068-.1-.005,0a18.286,18.286,0,0,0,2.48,3.21,11.634,11.634,0,0,0,1.086,1.029,1.444,1.444,0,0,0,1.146.469" transform="translate(143.116 -506.884)" fill="none" stroke="#000" stroke-width="0.1"/>
          <path id="path3647" d="M-183.8,320.953c-1.521,4.843,2.988,8.76,6.561,10.78-.69-.026-4.572.1-5.427-1.341C-184.358,326.858-184.294,321.87-183.8,320.953Z" transform="translate(184.105 -306.517)" fill="none" stroke="#000" stroke-width="0.1"/>
          <path id="path3671" d="M-169.141,80.031c-6.448,1.255-8.694,12.6-2.912,23.065-3.966-3.174-6.467-6.886-6.586-10.78C-178.095,85.936-171.735,80.2-169.141,80.031Z" transform="translate(178.918 -78.283)" fill="none" stroke="#000" stroke-width="0.1"/>
          <path id="path3673" d="M-141.963,526.541a.665.665,0,0,1,.041-.617" transform="translate(144.167 -500.953)" fill="none" stroke="#000" stroke-width="0.1"/>
          <path id="path3689" d="M-67.421,47.693c-1.781-2.43-5.58.338-9.42,5.658-3.2,4.43-6.483,11.264-7.408,17.221-2.278-5.595-3.6-17.806,2.912-23.062,4.482-3.112,12.668-1.394,13.723-.045C-67.565,47.527-67.654,47.415-67.421,47.693Z" transform="translate(91.114 -45.76)" fill="none" stroke="#000" stroke-width="0.1"/>
          <path id="path3628" d="M274.034,80.745c.5.211,1,.507,1.464.747" transform="translate(-250.672 -78.961)" fill="none" stroke="#000" stroke-width="0.1"/>
          <path id="path3634" d="M437.667,248.5a11.085,11.085,0,0,1,.558,1.6" transform="translate(-405.961 -237.949)" fill="none" stroke="#000" stroke-width="0.1"/>
          <path id="path3646" d="M-51.38,629.032a3.375,3.375,0,0,1-.41-.251" transform="translate(58.537 -598.402)" fill="none" stroke="#000" stroke-width="0.1"/>
          <path id="path3637" d="M-143.091,517.817c.046.135.1.276.153.417" transform="translate(145.182 -493.271)" fill="none" stroke="#000" stroke-width="0.1"/>
        </g>
        <g id="g3334" transform="translate(0.169 1.278)">
          <path id="path3733" d="M-175.079,341.3c-3.36-2.241-6.413-5.454-5.572-9.407" transform="translate(180.792 -318.193)" fill="none" stroke="blue" stroke-width="0.1"/>
          <path id="path3620" d="M-108.359,104.725c-4.83-9.783-2.82-19.934,3.169-21.708" transform="translate(114.616 -82.396)" fill="none" stroke="blue" stroke-width="0.1"/>
          <path id="path3639" d="M-139.944,526.747a.653.653,0,0,0,.491.758,9.6,9.6,0,0,0,3.938-.477" transform="translate(142.034 -503.012)" fill="none" stroke="blue" stroke-width="0.1"/>
          <path id="path3624" d="M-45.167,93.872C-43.259,83.28-32.748,67.823-28.9,71.336" transform="translate(52.083 -70.827)" fill="none" stroke="blue" stroke-width="0.1"/>
          <path id="path3630" d="M-13.072,279.91c1.554,1.66-1.271,4.414-5.853,6.879-5.46,2.938-13.385,5.5-18.95,5.815" transform="translate(45.163 -268.888)" fill="none" stroke="blue" stroke-width="0.1"/>
          <path id="path3636" d="M-36.024,539.918c5.259,3.511,10.415,4.954,14.7,4.775,6.251-.261,7.824-3.726,8.265-4.577" transform="translate(43.407 -515.348)" fill="none" stroke="blue" stroke-width="0.1"/>
          <path id="path3640" d="M-39.391,547.872a14.016,14.016,0,0,0,5.615,6.749,5.835,5.835,0,0,0,2.932.833,3.884,3.884,0,0,0,.934-.056" transform="translate(46.602 -522.896)" fill="none" stroke="blue" stroke-width="0.1"/>
          <path id="path3635" d="M-66.185,544.854A9.309,9.309,0,0,0-67,547.942c-.012.759.22,1.123.831,1.228" transform="translate(72.8 -520.032)" fill="none" stroke="blue" stroke-width="0.1"/>
        </g>
        <g id="g3344" transform="translate(0.316 1.511)">
          <path id="path3619" d="M-173.1,348.095c-2.409-1.92-5.183-4.643-4.762-8.295" transform="translate(177.902 -325.939)" fill="none" stroke="red" stroke-width="0.1"/>
          <path id="path3622" d="M-102.973,105.623a26,26,0,0,1-1.978-9.247c-.061-4.524,1.349-9,5.417-10.972" transform="translate(108.673 -84.893)" fill="none" stroke="red" stroke-width="0.1"/>
          <path id="path3626" d="M-36.6,97.279a59.456,59.456,0,0,1,7.519-16.117c3.22-4.494,6.548-6.551,8.307-5.511" transform="translate(43.81 -75.386)" fill="none" stroke="red" stroke-width="0.1"/>
          <path id="path3632" d="M-1.319,279.82c1.519,2.861-4.325,6.54-11.556,9.407A55.289,55.289,0,0,1-25.5,292.321" transform="translate(33.268 -269.039)" fill="none" stroke="red" stroke-width="0.1"/>
          <path id="path3638" d="M1.175,545.546c7.906,4.471,17.089,5.437,21.012-.659" transform="translate(7.956 -520.296)" fill="none" stroke="red" stroke-width="0.1"/>
          <path id="path3642" d="M-18.379,577.842c2.956,4.861,5.327,5.759,7.938,5.9" transform="translate(26.514 -551.57)" fill="none" stroke="red" stroke-width="0.1"/>
          <path id="path3648" d="M-63.507,555.7a1.309,1.309,0,0,1-.644-.944,9.224,9.224,0,0,1,.624-3" transform="translate(69.961 -526.817)" fill="none" stroke="red" stroke-width="0.1"/>
          <path id="path3641" d="M-140.139,525.909c.211.305.287.517.537.618a3.776,3.776,0,0,0,2.676-.322" transform="translate(142.065 -502.451)" fill="none" stroke="red" stroke-width="0.1"/>
        </g>
      </g>
      <g id="layer11" transform="translate(0.071 1.106)">
        <path id="path4084" d="M-141.905,526.279a.385.385,0,0,0-.075.164.727.727,0,0,0,.022.4.749.749,0,0,0,.448.336,2.366,2.366,0,0,0,.79.1,5.618,5.618,0,0,0,.8-.053,15.34,15.34,0,0,0,2.486-.578c.025-.015.069-.01.083-.038-.023-.031-.076-.014-.11-.022-.409-.01-.82-.011-1.229-.029a4.813,4.813,0,0,1-1.517.435,2.413,2.413,0,0,1-1.186-.127.594.594,0,0,1-.239-.2c-.073-.192-.155-.372-.258-.373l-.008-.01h-.008Z" transform="translate(144.136 -502.333)" opacity="0.75"/>
        <path id="path2935-1" d="M-68.883,533.714l-.006,0c-.116.26-.21.53-.312.8a11.315,11.315,0,0,0-.658,2.36,3.551,3.551,0,0,0,0,1.092.8.8,0,0,0,.4.585,1.03,1.03,0,0,0,.653.145c.018-.035-.068-.052-.089-.08l-.008-.006c.016,0,.068,0,.057-.006a3.513,3.513,0,0,1-.4-.311c-.027-.024-.09-.074-.147-.12l-.03-.038a1.116,1.116,0,0,1-.183-.666,4.616,4.616,0,0,1,.15-1.1c.135-.588.312-1.165.48-1.743.027-.3.067-.6.1-.9A.01.01,0,0,0-68.883,533.714Z" transform="translate(75.718 -509.226)" opacity="0.75"/>
        <path id="path2939-4" d="M-48.309,534.675a.01.01,0,0,0-.006.006c.084.223.189.442.284.661a17.465,17.465,0,0,0,2.9,4.659,11.362,11.362,0,0,0,1.885,1.689,11.379,11.379,0,0,0,1.114.714,5.175,5.175,0,0,0,.9.355h.07c-.027.036.073.033.1.049.3.083.592.172.894.228a5.677,5.677,0,0,0,1.3.03,5.391,5.391,0,0,0,.822-.124c.014-.041-.083-.023-.112-.038a2.074,2.074,0,0,1-.689-.205c-.194,0-.4-.008-.608-.019a4.672,4.672,0,0,1-2.212-.531,8.514,8.514,0,0,1-2.715-2.021,20.176,20.176,0,0,1-2.346-3.17c-.171-.263-.366-.51-.542-.771-.347-.494-.677-1-1.01-1.5,0-.007-.013-.016-.021-.013Z" transform="translate(55.232 -510.137)" opacity="0.75"/>
        <path id="path2943-0" d="M-46.823,534.041c-.018.027.036.043.049.062a24.718,24.718,0,0,0,7.451,4.009,23.4,23.4,0,0,0,6.113,1.146c.666.04,1.332.03,2,.014a15.1,15.1,0,0,0,1.764-.183.1.1,0,0,0,.008-.03l0,.018c.033.019.079-.012.116-.011a9.454,9.454,0,0,0,3.673-1.436,6.772,6.772,0,0,0,2.269-2.593,6.385,6.385,0,0,0,.3-.717c.018-.052.018-.054-.014-.011a6,6,0,0,1-.51.49c-.1.149-.206.309-.324.472-.188.259-.389.519-.524.692a9.434,9.434,0,0,1-1.4,1.18,9.938,9.938,0,0,1-3.555,1.463.054.054,0,0,0-.038.018c-.038-.013-.089.015-.132.018a14.007,14.007,0,0,1-2.615.241,20.527,20.527,0,0,1-5.59-.837,30.391,30.391,0,0,1-6.51-2.747c-.172-.1-.364-.166-.545-.253-.67-.3-1.33-.633-1.966-1C-46.81,534.042-46.816,534.038-46.823,534.041Z" transform="translate(53.819 -509.536)" opacity="0.75"/>
        <path id="path2947-9" d="M-23.046,275.123c-.02.03.013.074.016.107.068.221.2.738.258.985A2.392,2.392,0,0,1-23,277.368a6.021,6.021,0,0,1-1.378,1.77,18.073,18.073,0,0,1-2.9,2.126,42.808,42.808,0,0,1-4.66,2.406c-.028.019-.068.023-.088.049h0c-.158.049-.305.131-.459.193-1.289.556-2.588,1.091-3.92,1.536a54,54,0,0,1-6.725,1.753c-1.34.264-2.689.481-4.043.66-.381.128-.766.243-1.151.36-.017.041.069.006.094.013a34.734,34.734,0,0,0,5.853-.841,56.827,56.827,0,0,0,7.553-2.269q1.684-.636,3.327-1.375a.014.014,0,0,0-.008-.018l.057,0a37.621,37.621,0,0,0,5.149-2.792,15.516,15.516,0,0,0,2.567-2.076,5.331,5.331,0,0,0,1.157-1.692,2.054,2.054,0,0,0,.15-.98,1.726,1.726,0,0,0-.433-.94.551.551,0,0,0-.182-.124h0Z" transform="translate(55.243 -264.11)" opacity="0.75"/>
        <path id="path2951-4" d="M-183.685,323.509a1.065,1.065,0,0,0-.064.21,6.082,6.082,0,0,0-.194,1.547,5.19,5.19,0,0,0,.04.853c-.006.039.006.063.029.073a.025.025,0,0,0-.014.027,7.639,7.639,0,0,0,1.249,3.1,13.7,13.7,0,0,0,2.848,3.018,20.569,20.569,0,0,0,2.564,1.742c.028.014.031-.025.006-.032-.533-.433-1.047-.887-1.551-1.354-.338-.3-.694-.573-1.033-.872a13.971,13.971,0,0,1-2.679-3.012,7.538,7.538,0,0,1-.988-2.323c-.025-.095-.038-.193-.065-.287a.14.14,0,0,0-.03-.01l.03,0c0-.078-.028-.157-.033-.236a6.627,6.627,0,0,1-.027-1.56c0-.152-.031-.3-.038-.453s-.017-.281-.032-.421A.013.013,0,0,0-183.685,323.509Z" transform="translate(183.945 -309.996)" opacity="0.75"/>
        <path id="path2953-8" d="M-108.518,80.177a5.959,5.959,0,0,0-1.727.637c0,.013.008.019.021.021h-.054a7.209,7.209,0,0,0-2.416,2.32,11.559,11.559,0,0,0-1.487,3.426,16.7,16.7,0,0,0-.475,2.816c0,.016,0,.025.006.03h-.006c-.028.3-.044.594-.054.892-.007.54-.012,1.082.008,1.622a23.388,23.388,0,0,0,.4,3.319l.019,0-.016,0c.03.214.085.425.129.637a26.983,26.983,0,0,0,2.362,6.537c.109.207.211.419.331.618.037,0,0-.05,0-.07a23.2,23.2,0,0,1-.733-2.266c-.124-.339-.267-.671-.389-1.012a27.148,27.148,0,0,1-1.213-4.441l-.018,0,.013,0c-.058-.369-.124-.738-.174-1.109a21.1,21.1,0,0,1-.212-3.085c0-.543.019-1.087.069-1.629,0-.017-.017-.023-.033-.024l.029,0c.026-.046.01-.106.022-.156a13.568,13.568,0,0,1,1.343-4.856,8.911,8.911,0,0,1,2.567-3.1c.216-.165.446-.311.669-.462l0,0h.008c.166-.083.323-.187.489-.269a1.488,1.488,0,0,0,.378-.234c.056-.049.12-.1.17-.148C-108.5,80.182-108.51,80.174-108.518,80.177Zm-1.617.655a.052.052,0,0,1,.014,0h-.056A.378.378,0,0,1-110.135,80.832Z" transform="translate(118.247 -79.465)" opacity="0.75"/>
        <path id="path2955-8" d="M-34.212,66.233a3.164,3.164,0,0,0-.993.2,7.807,7.807,0,0,0-2.116,1.27c-.361.289-.7.6-1.039.915a.023.023,0,0,0,.006.014h-.027c-.566.559-1.111,1.137-1.627,1.742a37.844,37.844,0,0,0-2.532,3.34c-.542.8-1.053,1.626-1.539,2.464a.019.019,0,0,0,.014.018l-.025,0a49.276,49.276,0,0,0-2.873,5.831.027.027,0,0,0,.01.01h-.011a39.8,39.8,0,0,0-1.724,5.088c-.242.924-.445,1.858-.594,2.8.026.032.038-.047.053-.062q.281-.6.566-1.206c.1-.256.167-.524.255-.784q.847-2.646,1.9-5.22.126-.307.253-.612a.032.032,0,0,0-.01-.011h.006a2.731,2.731,0,0,0,.118-.261,60.119,60.119,0,0,1,2.682-5.538.027.027,0,0,0,.01-.032h0c.065-.093.114-.2.174-.3a32.288,32.288,0,0,1,3.85-5.553,20.053,20.053,0,0,1,1.694-1.7.022.022,0,0,0-.013-.016l.035,0a10.212,10.212,0,0,1,2.084-1.439,4.135,4.135,0,0,1,1.809-.491,2.025,2.025,0,0,1,1.007.265,2.912,2.912,0,0,0,.295.126c.028-.018-.019-.045-.027-.064a1.881,1.881,0,0,0-.48-.451,1.843,1.843,0,0,0-.6-.282A2.028,2.028,0,0,0-34.212,66.233Z" transform="translate(56.151 -66.232)" opacity="0.75"/>
      </g>
      <g id="layer4" transform="translate(0.318 0.36)">
        <path id="path3715" d="M-162.749,51.591A16.5,16.5,0,0,0-179.1,68.247a16.841,16.841,0,0,0,1.756,7.517c0,.008,0,.016,0,.024l.078.047a5.358,5.358,0,0,0,.365.852,13.365,13.365,0,0,0,1.466,2.2,16.056,16.056,0,0,0,3.256,2.99c-.017-.005.643.425.891.575h0a16.048,16.048,0,0,0,8.533,2.446A16.5,16.5,0,0,0-146.4,68.247,16.5,16.5,0,0,0-162.749,51.591Z" transform="translate(179.097 -51.591)" fill="#ff2a7f"/>
      </g>
      <g id="g3919" transform="translate(0.071 0.36)">
        <g id="g3258" transform="translate(0.247)">
          <path id="path3921" d="M-162.749,51.591A16.5,16.5,0,0,0-179.1,68.247a16.841,16.841,0,0,0,1.756,7.517c0,.008,0,.016,0,.024l.078.047a5.358,5.358,0,0,0,.365.852,13.365,13.365,0,0,0,1.466,2.2,16.056,16.056,0,0,0,3.256,2.99c-.017-.005.643.425.891.575h0a16.048,16.048,0,0,0,8.533,2.446A16.5,16.5,0,0,0-146.4,68.247,16.5,16.5,0,0,0-162.749,51.591Z" transform="translate(179.097 -51.591)" opacity="0.35" fill="url(#radial-gradient)"/>
          <path id="path2963" d="M-162.749,51.591A16.5,16.5,0,0,0-179.1,68.247a16.841,16.841,0,0,0,1.756,7.517c0,.008,0,.016,0,.024l.078.047a5.357,5.357,0,0,0,.365.852,13.366,13.366,0,0,0,1.466,2.2,16.056,16.056,0,0,0,3.256,2.99c-.017-.005.643.425.891.575h0a16.048,16.048,0,0,0,8.533,2.446A16.5,16.5,0,0,0-146.4,68.247a16.5,16.5,0,0,0-16.348-16.655Z" transform="translate(179.097 -51.591)" opacity="0.35" fill="url(#radial-gradient-2)"/>
          <path id="path2958" d="M-162.749,51.591A16.5,16.5,0,0,0-179.1,68.247a16.841,16.841,0,0,0,1.756,7.517c0,.008,0,.016,0,.024l.078.047a5.357,5.357,0,0,0,.365.852,13.366,13.366,0,0,0,1.466,2.2,16.056,16.056,0,0,0,3.256,2.99c-.017-.005.643.425.891.575h0a16.048,16.048,0,0,0,8.533,2.446A16.5,16.5,0,0,0-146.4,68.247a16.5,16.5,0,0,0-16.348-16.655Z" transform="translate(179.097 -51.591)" opacity="0.75" fill="url(#radial-gradient-3)"/>
        </g>
        <g id="g3263" transform="translate(0 0.747)">
          <path id="path2935" d="M-68.89,533.728c-.116.26-.211.529-.313.795a11.317,11.317,0,0,0-.658,2.36,3.555,3.555,0,0,0,0,1.092.8.8,0,0,0,.4.584,1.027,1.027,0,0,0,.652.145c.018-.035-.066-.053-.088-.08a2.33,2.33,0,0,1-.524-.48,1.116,1.116,0,0,1-.183-.666,4.613,4.613,0,0,1,.149-1.1c.135-.588.312-1.165.48-1.744.027-.3.068-.6.1-.9a.01.01,0,0,0-.018-.007Z" transform="translate(75.719 -509.236)" opacity="0.5"/>
          <path id="path2937" d="M-141.914,526.267a.39.39,0,0,0-.075.165.722.722,0,0,0,.022.4.748.748,0,0,0,.448.336,2.374,2.374,0,0,0,.792.1,5.611,5.611,0,0,0,.8-.053,15.334,15.334,0,0,0,2.486-.578c.025-.015.07-.01.083-.039-.023-.031-.077-.012-.111-.021-.409-.01-.819-.012-1.227-.03a4.815,4.815,0,0,1-1.517.435,2.413,2.413,0,0,1-1.186-.127.772.772,0,0,1-.329-.327c-.059-.084-.11-.176-.177-.254h-.008Z" transform="translate(144.145 -502.322)" opacity="0.5"/>
          <path id="path2939" d="M-48.309,534.675a.01.01,0,0,0-.006.006c.084.223.189.442.284.661a17.465,17.465,0,0,0,2.9,4.659,11.362,11.362,0,0,0,1.885,1.689,11.379,11.379,0,0,0,1.114.714,5.175,5.175,0,0,0,.9.355h.07c-.027.036.073.033.1.049.3.083.592.172.894.228a5.677,5.677,0,0,0,1.3.03,5.391,5.391,0,0,0,.822-.124c.014-.041-.083-.023-.112-.038a2.074,2.074,0,0,1-.689-.205c-.194,0-.4-.008-.608-.019a4.672,4.672,0,0,1-2.212-.531,8.514,8.514,0,0,1-2.715-2.021,20.176,20.176,0,0,1-2.346-3.17c-.171-.263-.366-.51-.542-.771-.347-.494-.677-1-1.01-1.5,0-.007-.013-.016-.021-.013Z" transform="translate(55.232 -510.137)" opacity="0.5"/>
          <path id="path2943" d="M-46.823,534.041c-.018.027.036.043.049.062a24.718,24.718,0,0,0,7.451,4.009,23.4,23.4,0,0,0,6.113,1.146c.666.04,1.332.03,2,.014a15.1,15.1,0,0,0,1.764-.183.1.1,0,0,0,.008-.03l0,.018c.033.019.079-.012.116-.011a9.454,9.454,0,0,0,3.673-1.436,6.772,6.772,0,0,0,2.269-2.593,6.385,6.385,0,0,0,.3-.717c.018-.052.018-.054-.014-.011a6,6,0,0,1-.51.49c-.1.149-.206.309-.324.472-.188.259-.389.519-.524.692a9.434,9.434,0,0,1-1.4,1.18,9.938,9.938,0,0,1-3.555,1.463.054.054,0,0,0-.038.018c-.038-.013-.089.015-.132.018a14.007,14.007,0,0,1-2.615.241,20.527,20.527,0,0,1-5.59-.837,30.391,30.391,0,0,1-6.51-2.747c-.172-.1-.364-.166-.545-.253-.67-.3-1.33-.633-1.966-1C-46.81,534.042-46.816,534.038-46.823,534.041Z" transform="translate(53.819 -509.536)" opacity="0.5"/>
          <path id="path2947" d="M-23.046,275.123c-.02.03.013.074.016.107.068.221.2.738.258.985A2.392,2.392,0,0,1-23,277.368a6.021,6.021,0,0,1-1.378,1.77,18.073,18.073,0,0,1-2.9,2.126,42.808,42.808,0,0,1-4.66,2.406c-.028.019-.068.023-.088.049h0c-.158.049-.305.131-.459.193-1.289.556-2.588,1.091-3.92,1.536a54,54,0,0,1-6.725,1.753c-1.34.264-2.689.481-4.043.66-.381.128-.766.243-1.151.36-.017.041.069.006.094.013a34.734,34.734,0,0,0,5.853-.841,56.827,56.827,0,0,0,7.553-2.269q1.684-.636,3.327-1.375a.014.014,0,0,0-.008-.018l.057,0a37.621,37.621,0,0,0,5.149-2.792,15.516,15.516,0,0,0,2.567-2.076,5.331,5.331,0,0,0,1.157-1.692,2.054,2.054,0,0,0,.15-.98,1.726,1.726,0,0,0-.433-.94.551.551,0,0,0-.182-.124h0Z" transform="translate(55.243 -264.11)" opacity="0.5"/>
          <path id="path2951" d="M-183.685,323.509a1.065,1.065,0,0,0-.064.21,6.082,6.082,0,0,0-.194,1.547,5.19,5.19,0,0,0,.04.853c-.006.039.006.063.029.073a.025.025,0,0,0-.014.027,7.639,7.639,0,0,0,1.249,3.1,13.7,13.7,0,0,0,2.848,3.018,20.569,20.569,0,0,0,2.564,1.742c.028.014.031-.025.006-.032-.533-.433-1.047-.887-1.551-1.354-.338-.3-.694-.573-1.033-.872a13.971,13.971,0,0,1-2.679-3.012,7.538,7.538,0,0,1-.988-2.323c-.025-.095-.038-.193-.065-.287a.14.14,0,0,0-.03-.01l.03,0c0-.078-.028-.157-.033-.236a6.627,6.627,0,0,1-.027-1.56c0-.152-.031-.3-.038-.453s-.017-.281-.032-.421A.013.013,0,0,0-183.685,323.509Z" transform="translate(183.945 -309.996)" opacity="0.5"/>
          <path id="path2953" d="M-108.518,80.177a5.959,5.959,0,0,0-1.727.637c0,.013.008.019.021.021h-.054a7.209,7.209,0,0,0-2.416,2.32,11.559,11.559,0,0,0-1.487,3.426,16.7,16.7,0,0,0-.475,2.816c0,.016,0,.025.006.03h-.006c-.028.3-.044.594-.054.892-.007.54-.012,1.082.008,1.622a23.388,23.388,0,0,0,.4,3.319l.019,0-.016,0c.03.214.085.425.129.637a26.983,26.983,0,0,0,2.362,6.537c.109.207.211.419.331.618.037,0,0-.05,0-.07a23.2,23.2,0,0,1-.733-2.266c-.124-.339-.267-.671-.389-1.012a27.148,27.148,0,0,1-1.213-4.441l-.018,0,.013,0c-.058-.369-.124-.738-.174-1.109a21.1,21.1,0,0,1-.212-3.085c0-.543.019-1.087.069-1.629,0-.017-.017-.023-.033-.024l.029,0c.026-.046.01-.106.022-.156a13.568,13.568,0,0,1,1.343-4.856,8.911,8.911,0,0,1,2.567-3.1c.216-.165.446-.311.669-.462l0,0h.008c.166-.083.323-.187.489-.269a1.488,1.488,0,0,0,.378-.234c.056-.049.12-.1.17-.148C-108.5,80.182-108.51,80.174-108.518,80.177Zm-1.617.655a.052.052,0,0,1,.014,0h-.056A.378.378,0,0,1-110.135,80.832Z" transform="translate(118.247 -79.465)" opacity="0.5"/>
          <path id="path2955" d="M-34.212,66.233a3.164,3.164,0,0,0-.993.2,7.807,7.807,0,0,0-2.116,1.27c-.361.289-.7.6-1.039.915a.023.023,0,0,0,.006.014h-.027c-.566.559-1.111,1.137-1.627,1.742a37.844,37.844,0,0,0-2.532,3.34c-.542.8-1.053,1.626-1.539,2.464a.019.019,0,0,0,.014.018l-.025,0a49.276,49.276,0,0,0-2.873,5.831.027.027,0,0,0,.01.01h-.011a39.8,39.8,0,0,0-1.724,5.088c-.242.924-.445,1.858-.594,2.8.026.032.038-.047.053-.062q.281-.6.566-1.206c.1-.256.167-.524.255-.784q.847-2.646,1.9-5.22.126-.307.253-.612a.032.032,0,0,0-.01-.011h.006a2.731,2.731,0,0,0,.118-.261,60.119,60.119,0,0,1,2.682-5.538.027.027,0,0,0,.01-.032h0c.065-.093.114-.2.174-.3a32.288,32.288,0,0,1,3.85-5.553,20.053,20.053,0,0,1,1.694-1.7.022.022,0,0,0-.013-.016l.035,0a10.212,10.212,0,0,1,2.084-1.439,4.135,4.135,0,0,1,1.809-.491,2.025,2.025,0,0,1,1.007.265,2.912,2.912,0,0,0,.295.126c.028-.018-.019-.045-.027-.064a1.881,1.881,0,0,0-.48-.451,1.843,1.843,0,0,0-.6-.282A2.028,2.028,0,0,0-34.212,66.233Z" transform="translate(56.151 -66.232)" opacity="0.5"/>
        </g>
      </g>
      <g id="layer7" transform="translate(0.068 1.099)">
        <g id="g2961">
          <path id="path3669" d="M-24.146,274.9c.019.08.042.176.066.257a1.576,1.576,0,0,1,.326,1.627,6.937,6.937,0,0,1-2.259,2.718,33.369,33.369,0,0,1-6.9,3.981,55.747,55.747,0,0,1-12.062,3.857,30.691,30.691,0,0,1-3.9.509c-.09.03-.5.148-.605.18A27.473,27.473,0,0,0-46,287.672a54.8,54.8,0,0,0,11.859-3.459,37.73,37.73,0,0,0,7.62-4.087,8.71,8.71,0,0,0,2.749-2.9,1.976,1.976,0,0,0,.107-1.772A1,1,0,0,0-24.146,274.9Z" transform="translate(56.335 -263.895)" fill="#f59"/>
          <path id="path3672" d="M-34.4,66.09a5.559,5.559,0,0,0-2.954,1.347,23.417,23.417,0,0,0-3.359,3.4,44.05,44.05,0,0,0-6.17,10.367,38.11,38.11,0,0,0-2.555,8.305c0,.031-.053.351-.053.351.026-.052.2-.423.226-.487a30.058,30.058,0,0,1,.722-3.008A48.4,48.4,0,0,1-43.8,75.814a34.363,34.363,0,0,1,5.671-7.4,7.835,7.835,0,0,1,3.251-2.019A2.084,2.084,0,0,1-33,66.838c.145.066.237.1.331.142a2.521,2.521,0,0,0-.385-.42,1.971,1.971,0,0,0-1.344-.47Z" transform="translate(56.352 -66.088)" fill="#f59"/>
          <path id="path3674" d="M-108.7,80.08a6.666,6.666,0,0,0-4.3,3.079,14.1,14.1,0,0,0-1.938,7.015,25.062,25.062,0,0,0,2.991,12.35c.362.672.448.9.081-.045-.059-.181-.185-.539-.185-.54-.336-.725-.674-1.4-.936-2.129a24.3,24.3,0,0,1-1.755-8.54,16.271,16.271,0,0,1,.878-5.743,8.58,8.58,0,0,1,3.635-4.709,6.338,6.338,0,0,1,1.348-.588Z" transform="translate(118.474 -79.367)" fill="#f59"/>
          <path id="path3676" d="M-183.769,322.671a6.836,6.836,0,0,0-.208,2.38,8.393,8.393,0,0,0,2.186,4.521,17.337,17.337,0,0,0,4.119,3.346c.044.026.294.173.53.308-.569-.47-.712-.595-.973-.823a19.556,19.556,0,0,1-1.873-1.388,10.58,10.58,0,0,1-3.617-5.031,6.323,6.323,0,0,1-.088-2.976c-.011-.092-.034-.482-.034-.482Z" transform="translate(184.002 -309.056)" fill="#f59"/>
          <path id="path3678" d="M-142.075,526.086a.551.551,0,0,0,.3.773,3.98,3.98,0,0,0,2.042.055,15.8,15.8,0,0,0,2.322-.585.827.827,0,0,0-.176,0,13.094,13.094,0,0,1-3.442.545c-.623-.013-.919-.241-.976-.611a.929.929,0,0,1,0-.219.138.138,0,0,0-.018-.036l-.046.082Z" transform="translate(144.265 -502.065)" fill="#f59"/>
          <path id="path3680" d="M-49.45,532.329c.06.152.185.427.2.466a16.116,16.116,0,0,0,3.949,5.9,7.906,7.906,0,0,0,3.208,1.9,4.557,4.557,0,0,0,1.584.266,5.749,5.749,0,0,0,1.411-.157c-.068-.011-.363-.06-.367-.059a4.739,4.739,0,0,1-1.022.048,6.006,6.006,0,0,1-2.763-.786,13.3,13.3,0,0,1-5.131-5.652c-.156-.31-.5-1.035-.56-1.134C-49.109,532.849-49.317,532.523-49.45,532.329Z" transform="translate(56.311 -507.905)" fill="#f59"/>
          <path id="path3682" d="M-49.488,532.317c.159.147.584.455.748.575a23.741,23.741,0,0,0,12,4.658,18.96,18.96,0,0,0,3.785.027A9.16,9.16,0,0,0-27.2,535.2a6.371,6.371,0,0,0,1.611-2.561c-.047.055-.2.221-.25.266a7.693,7.693,0,0,1-1.207,1.793,9.227,9.227,0,0,1-5.856,2.68,21.116,21.116,0,0,1-10.18-1.621,32.068,32.068,0,0,1-5.707-3.037c-.076-.048-.466-.262-.7-.4Z" transform="translate(56.347 -507.893)" fill="#f59"/>
          <path id="path3684" d="M-68.867,532.315a15.725,15.725,0,0,0-.94,2.891,3.367,3.367,0,0,0,.024,1.687.982.982,0,0,0,.99.467c-.045-.028-.134-.091-.136-.092a1.327,1.327,0,0,1-.35-.107,1.031,1.031,0,0,1-.476-.991,5.173,5.173,0,0,1,.14-1.151,12.153,12.153,0,0,1,.668-2.062C-68.921,532.743-68.895,532.529-68.867,532.315Z" transform="translate(75.726 -507.891)" fill="#f59"/>
        </g>
      </g>
      <g id="layer5" transform="translate(0.063 0.062)">
        <path id="path3647-4" d="M-183.8,320.953c-1.521,4.843,2.988,8.76,6.561,10.78-.69-.026-4.572.1-5.427-1.341C-184.358,326.858-184.294,321.87-183.8,320.953Z" transform="translate(184.105 -306.517)" fill="#dedede"/>
        <g id="g3170" transform="translate(0.279)">
          <path id="path3710-7" d="M-24.144,274.93c.49.226.644,1.045.641,1.252-.08,4.612-16.366,11.507-25.975,11.874,6.481,3.854,18.471,5.4,23.6.63,1.441-1.34,3.766-6.042,2.365-12.582A1.385,1.385,0,0,0-24.144,274.93Z" transform="translate(56.065 -262.594)" fill="#dedede"/>
          <path id="path3681-1" d="M-49.478,116.75c7.087-1.99,22.493-10.288,24.821-14.446a.821.821,0,0,0,.095-.524c-.019-.738-2.7-5.265-6.407-7.324a.815.815,0,0,0-.457-.013c-1.57.332-4.4,2.546-7.641,6.345a67.621,67.621,0,0,0-10.41,15.961" transform="translate(56.065 -91.937)" fill="#dedede"/>
          <path id="path3714-4" d="M-25.575,532.656c-.906,2.643-3.573,5-8.837,5.024a23.9,23.9,0,0,1-15.066-5.333c2.077,3.211,5.38,8.013,11.035,8.45,1.977.153,5.71-1.25,7.357-2.3,2.815-1.786,5.155-4.182,5.511-5.848" transform="translate(56.065 -506.884)" fill="#dedede"/>
          <path id="path3738-0" d="M-42.622,540.721a4.549,4.549,0,0,1-.612.112,5.35,5.35,0,0,1-1.787-.056,6.2,6.2,0,0,1-2.657-1.171c-3.294-2.218-4.766-6.05-5.308-7.26-.406,2.86-.222,5.4,1.212,6.224a16.787,16.787,0,0,0,5.222,2.027,12.983,12.983,0,0,0,1.908.273,5.37,5.37,0,0,0,.645.01A6.249,6.249,0,0,0-42.622,540.721Z" transform="translate(59.571 -506.884)" fill="#dedede"/>
          <path id="path3623-9" d="M-136.177,537.387a1.033,1.033,0,0,1-.912-.337,1.733,1.733,0,0,1-.2-1.091,12.583,12.583,0,0,1,1.033-3.612c-1.088.364-3.974,1.146-4.633.331.01.015-.068-.1-.005,0a18.3,18.3,0,0,0,2.48,3.21,11.616,11.616,0,0,0,1.086,1.029,1.444,1.444,0,0,0,1.146.469" transform="translate(142.838 -506.884)" fill="#dedede"/>
          <path id="path3671-8" d="M-169.141,80.031c-6.448,1.255-8.694,12.6-2.912,23.065-3.966-3.174-6.467-6.886-6.586-10.78C-178.095,85.936-171.735,80.2-169.141,80.031Z" transform="translate(178.639 -78.283)" fill="#dedede"/>
          <path id="path3689-2" d="M-67.421,47.693c-1.781-2.43-5.58.338-9.42,5.658-3.2,4.43-6.483,11.264-7.408,17.221-2.278-5.595-3.6-17.806,2.912-23.062,4.482-3.112,12.668-1.394,13.723-.045C-67.565,47.527-67.654,47.415-67.421,47.693Z" transform="translate(90.835 -45.76)" fill="#dedede"/>
        </g>
        <g id="g3198" transform="translate(0.001 0)">
          <path id="path3746" d="M-167.735,45.77a11.648,11.648,0,0,0-6.57,1.784c-6.513,5.359-5.19,17.807-2.911,23.511.925-6.073,4.21-13.041,7.407-17.557,3.287-4.644,6.545-7.379,8.532-6.516A15.33,15.33,0,0,0-167.735,45.77Zm6.457,1.222a3,3,0,0,1,.491.31A1.944,1.944,0,0,0-161.278,46.991Zm-15.939,24.073c7.087-2.029,22.493-10.488,24.821-14.727a.857.857,0,0,0,.094-.534c-.019-.752-2.7-5.368-6.408-7.467a.8.8,0,0,0-.456-.013c-1.57.338-4.4,2.6-7.643,6.469A69.074,69.074,0,0,0-177.216,71.064Zm0,0c6.481,3.929,18.47,5.5,23.6.642a4.058,4.058,0,0,0,.3-.32c1.433-1.691,3.364-6.265,2.073-12.467,0,.015,0,.028,0,.039C-151.321,63.66-167.607,70.689-177.216,71.064Zm0,0c1.993,3.14,5.113,7.774,10.356,8.539q.333.049.679.076c1.977.156,5.71-1.275,7.357-2.341,2.81-1.818,5.145-4.254,5.507-5.952-.908,2.692-3.575,5.093-8.835,5.116A23.619,23.619,0,0,1-177.216,71.064Zm0,0c-.406,2.916-.223,5.5,1.211,6.346a16.605,16.605,0,0,0,5.222,2.066,12.755,12.755,0,0,0,1.907.278,5.269,5.269,0,0,0,.645.01,4.146,4.146,0,0,1-1.021-.1,6.144,6.144,0,0,1-2.656-1.194C-175.2,76.2-176.674,72.3-177.216,71.064Zm0,0c-1.088.371-3.974,1.168-4.632.338.01.015-.069-.106-.006,0a18.612,18.612,0,0,0,2.481,3.272,11.769,11.769,0,0,0,1.085,1.049,3,3,0,0,0,.472.336.766.766,0,0,1-.237-.2,1.8,1.8,0,0,1-.2-1.113A13.025,13.025,0,0,1-177.216,71.064Zm0,0c-3.038-1.75-6.752-4.9-6.862-8.838a18.181,18.181,0,0,0,1.434,7.471C-181.789,71.169-177.906,71.038-177.216,71.064Zm0,0C-183,60.4-180.753,48.829-174.3,47.55c-2.594.175-8.953,6.02-9.5,12.524,0,.016,0,.031,0,.047a3.713,3.713,0,0,0-.215,1.015,6.85,6.85,0,0,1,.217-.988C-183.651,64.092-181.157,67.849-177.216,71.064Zm-6.8-9.928a6.448,6.448,0,0,0-.062,1.09C-184.071,61.82-184.05,61.453-184.016,61.137ZM-166.86,79.6a6.068,6.068,0,0,1-.891.14c.1-.007.193-.015.285-.026A4.483,4.483,0,0,0-166.86,79.6Zm15.617-20.684a2.036,2.036,0,0,0-.083-.439,2.369,2.369,0,0,1,.075.4Zm-9.5-11.582c.025.023.05.046.075.07C-160.7,47.384-160.72,47.361-160.747,47.337Zm.11.106c.02.022.039.043.056.065.048.063-.04-.051.193.232A2.645,2.645,0,0,0-160.637,47.443Zm8.843,10.29a1.039,1.039,0,0,1,.26.278A.945.945,0,0,0-151.795,57.733Zm.26.278c.013.02.025.04.038.062C-151.509,58.052-151.522,58.031-151.535,58.011Zm.072.122c.016.032.032.063.046.1C-151.432,58.2-151.447,58.163-151.463,58.133Zm.046.1c.014.033.027.066.04.1C-151.39,58.293-151.4,58.26-151.417,58.229Zm.04.1c.011.029.021.058.03.086C-151.356,58.384-151.367,58.355-151.377,58.328Zm-26.308,17.8a.965.965,0,0,0,.379.094A1.1,1.1,0,0,1-177.685,76.13Z" transform="translate(184.081 -45.769)" fill="url(#radial-gradient-4)"/>
          <path id="path3907" d="M-167.735,45.77a11.648,11.648,0,0,0-6.57,1.784c-6.513,5.359-5.19,17.807-2.911,23.511.925-6.073,4.21-13.041,7.407-17.557,3.287-4.644,6.545-7.379,8.532-6.516A15.33,15.33,0,0,0-167.735,45.77Zm6.457,1.222a3,3,0,0,1,.491.31A1.944,1.944,0,0,0-161.278,46.991Zm-15.939,24.073c7.087-2.029,22.493-10.488,24.821-14.727a.857.857,0,0,0,.094-.534c-.019-.752-2.7-5.368-6.408-7.467a.8.8,0,0,0-.456-.013c-1.57.338-4.4,2.6-7.643,6.469A69.074,69.074,0,0,0-177.216,71.064Zm0,0c6.481,3.929,18.47,5.5,23.6.642a4.053,4.053,0,0,0,.3-.32c1.433-1.691,3.364-6.265,2.073-12.467,0,.015,0,.028,0,.039C-151.321,63.66-167.607,70.689-177.216,71.064Zm0,0c1.993,3.14,5.113,7.774,10.356,8.539q.333.049.679.076c1.977.156,5.71-1.275,7.357-2.341,2.81-1.818,5.145-4.254,5.507-5.952-.908,2.692-3.575,5.093-8.835,5.116A23.619,23.619,0,0,1-177.216,71.064Zm0,0c-.406,2.916-.223,5.5,1.211,6.346a16.605,16.605,0,0,0,5.222,2.066,12.755,12.755,0,0,0,1.907.278,5.268,5.268,0,0,0,.645.01,4.145,4.145,0,0,1-1.021-.1,6.144,6.144,0,0,1-2.656-1.194C-175.2,76.2-176.674,72.3-177.216,71.064Zm0,0c-1.088.371-3.974,1.168-4.632.338.01.015-.069-.106-.006,0a18.612,18.612,0,0,0,2.481,3.272,11.769,11.769,0,0,0,1.085,1.049,3,3,0,0,0,.472.336.766.766,0,0,1-.237-.2,1.8,1.8,0,0,1-.2-1.113A13.025,13.025,0,0,1-177.216,71.064Zm0,0c-3.038-1.75-6.752-4.9-6.862-8.838a18.181,18.181,0,0,0,1.434,7.471C-181.789,71.169-177.906,71.038-177.216,71.064Zm0,0C-183,60.4-180.753,48.829-174.3,47.55c-2.594.175-8.953,6.02-9.5,12.524,0,.016,0,.031,0,.047a3.713,3.713,0,0,0-.215,1.015,6.85,6.85,0,0,1,.217-.988C-183.651,64.092-181.157,67.849-177.216,71.064Zm-6.8-9.928a6.448,6.448,0,0,0-.062,1.09C-184.071,61.82-184.05,61.453-184.016,61.137ZM-166.86,79.6a6.068,6.068,0,0,1-.891.14c.1-.007.193-.015.285-.026A4.483,4.483,0,0,0-166.86,79.6Zm15.617-20.684a2.036,2.036,0,0,0-.083-.439,2.369,2.369,0,0,1,.075.4Zm-9.5-11.582c.025.023.05.046.075.07C-160.7,47.384-160.72,47.361-160.747,47.337Zm.11.106c.02.022.039.043.056.065.048.063-.04-.051.193.232A2.645,2.645,0,0,0-160.637,47.443Zm8.843,10.29a1.039,1.039,0,0,1,.26.278A.945.945,0,0,0-151.795,57.733Zm.26.278c.013.02.025.04.038.062C-151.509,58.052-151.522,58.031-151.535,58.011Zm.072.122c.016.032.032.063.046.1C-151.432,58.2-151.447,58.163-151.463,58.133Zm.046.1c.014.033.027.066.04.1C-151.39,58.293-151.4,58.26-151.417,58.229Zm.04.1c.011.029.021.058.03.086C-151.356,58.384-151.367,58.355-151.377,58.328Zm-26.308,17.8a.965.965,0,0,0,.379.094A1.1,1.1,0,0,1-177.685,76.13Z" transform="translate(184.081 -45.769)" opacity="0.5" fill="url(#radial-gradient-5)"/>
        </g>
      </g>
      <g id="layer2" transform="translate(43.076 12.111)">
        <g id="g3836" transform="translate(0 0)">
          <path id="path3817" d="M2.754.737a13.234,13.234,0,0,1,4.379.32C7.068,1.672,7,2.292,6.925,2.907c-.813-.076-1.631-.157-2.444-.239a2.458,2.458,0,0,0-1.229.081,1,1,0,0,0-.554.676,1.275,1.275,0,0,0,.041.986,1.64,1.64,0,0,0,.9.569,10.583,10.583,0,0,1,2.886.981,2.182,2.182,0,0,1,.793.935,3.749,3.749,0,0,1,.132,2.2,3.279,3.279,0,0,1-.254.752,2.768,2.768,0,0,1-1.616,1.473A5.392,5.392,0,0,1,3,11.513L.28,11.1C.4,10.416.524,9.73.646,9.039a24.39,24.39,0,0,0,3.379.437,1.039,1.039,0,0,0,.742-.218,1.383,1.383,0,0,0,.325-.848.85.85,0,0,0-.279-.787,3.29,3.29,0,0,0-1.24-.472,5.3,5.3,0,0,1-2.449-.97,3.022,3.022,0,0,1-.889-2.19A3.046,3.046,0,0,1,.773,2.058,2.883,2.883,0,0,1,2.754.737Z" transform="translate(-0.226 -0.67)" fill="#d5307f"/>
          <path id="path3819" d="M156.457,4.483h3.124q1.616,5.3,3.231,10.6c-.828-.005-1.656.005-2.484-.005-.188-.716-.386-1.428-.574-2.144h-3.465l-.579,2.149h-2.479q1.616-5.3,3.226-10.6m.33,6.6h2.469c-.411-1.524-.818-3.053-1.229-4.577C157.6,8.03,157.2,9.559,156.787,11.083Z" transform="translate(-145.429 -4.289)" fill="#d5307f"/>
          <path id="path3821" d="M327.285,4.483H335.4V6.612h-2.85c-.005,2.82,0,5.644,0,8.469H330.14V6.612h-2.855Z" transform="translate(-310.607 -4.289)" fill="#d5307f"/>
          <path id="path3823" d="M543.032,11.3a.3.3,0,0,1,.188-.041h2.19V21.511c-.772,0-1.544.005-2.312-.005V13.819l-1.661,1.021c-.381-.63-.762-1.255-1.143-1.88.914-.554,1.824-1.108,2.738-1.661Z" transform="translate(-512.754 -10.718)" fill="#d5307f"/>
          <path id="path3825" d="M490.877,159.607H493.3v2.688h-2.423Z" transform="translate(-465.857 -151.503)" fill="#d5307f"/>
        </g>
      </g>
    </g>
  </g>
</svg>
